HIERARCHY
ROOT Hips
{
	OFFSET 0.000000 0.000000 0.000000
	CHANNELS 6 Xposition Yposition Zposition Xrotation Yrotation Zrotation
	JOINT LeftUpLeg_virtual
	{
		OFFSET 0.000000 0.000000 0.000000
		CHANNELS 3 Xrotation Yrotation Zrotation
		JOINT LeftUpLeg
		{
			OFFSET 15.427100 -6.655098 0.678600
			CHANNELS 3 Xrotation Yrotation Zrotation
			JOINT LeftLeg
			{
				OFFSET 4.081073 -39.591068 13.024000
				CHANNELS 3 Xrotation Yrotation Zrotation
				JOINT LeftFoot
				{
					OFFSET -4.081074 -37.707932 -15.979700
					CHANNELS 3 Xrotation Yrotation Zrotation
					JOINT LeftToeBase
					{
						OFFSET 5.346399 -15.068900 20.645000
						CHANNELS 3 Xrotation Yrotation Zrotation
						JOINT LeftToe_End
						{
							OFFSET 2.754700 0.931300 11.300900
							CHANNELS 3 Xrotation Yrotation Zrotation
							End Site
							{
								OFFSET 0 0 0
							}
						}
					}
				}
			}
		}
	}
	JOINT RightUpLeg_virtual
	{
		OFFSET 0.000000 0.000000 0.000000
		CHANNELS 3 Xrotation Yrotation Zrotation
		JOINT RightUpLeg
		{
			OFFSET -15.569500 -6.655098 0.678600
			CHANNELS 3 Xrotation Yrotation Zrotation
			JOINT RightLeg
			{
				OFFSET -4.081825 -39.591045 13.023800
				CHANNELS 3 Xrotation Yrotation Zrotation
				JOINT RightFoot
				{
					OFFSET 4.081824 -37.707954 -15.979600
					CHANNELS 3 Xrotation Yrotation Zrotation
					JOINT RightToeBase
					{
						OFFSET -5.346400 -15.068900 20.645000
						CHANNELS 3 Xrotation Yrotation Zrotation
						JOINT RightToe_End
						{
							OFFSET -2.754700 0.931300 11.300900
							CHANNELS 3 Xrotation Yrotation Zrotation
							End Site
							{
								OFFSET 0 0 0
							}
						}
					}
				}
			}
		}
	}
	JOINT Spine_virtual
	{
		OFFSET 0.000000 0.000000 0.000000
		CHANNELS 3 Xrotation Yrotation Zrotation
		JOINT Spine
		{
			OFFSET -0.279200 12.230698 -2.892100
			CHANNELS 3 Xrotation Yrotation Zrotation
			JOINT Spine1
			{
				OFFSET -0.232667 10.192268 -1.242267
				CHANNELS 3 Xrotation Yrotation Zrotation
				JOINT Spine1_split
				{
					OFFSET -0.232667 10.192268 -1.242267
					CHANNELS 3 Xrotation Yrotation Zrotation
					JOINT Spine2
					{
						OFFSET -0.232667 10.192268 -1.242267
						CHANNELS 3 Xrotation Yrotation Zrotation
						JOINT Neck_virtual
						{
							OFFSET 0.000000 0.000000 0.000000
							CHANNELS 3 Xrotation Yrotation Zrotation
							JOINT Neck
							{
								OFFSET -0.418800 17.814194 8.416900
								CHANNELS 3 Xrotation Yrotation Zrotation
								JOINT Head
								{
									OFFSET 0.000000 7.031097 3.806800
									CHANNELS 3 Xrotation Yrotation Zrotation
									JOINT HeadTop_End
									{
										OFFSET 0.000000 24.646606 12.978600
										CHANNELS 3 Xrotation Yrotation Zrotation
										End Site
										{
											OFFSET 0 0 0
										}
									}
								}
							}
						}
						JOINT LeftShoulder_virtual
						{
							OFFSET 0.000000 0.000000 0.000000
							CHANNELS 3 Xrotation Yrotation Zrotation
							JOINT LeftShoulder
							{
								OFFSET 8.476499 7.247704 -3.868750
								CHANNELS 3 Xrotation Yrotation Zrotation
								JOINT LeftShoulder_split
								{
									OFFSET 8.476499 7.247704 -3.868750
									CHANNELS 3 Xrotation Yrotation Zrotation
									JOINT LeftArm
									{
										OFFSET 9.308998 -2.777710 0.208600
										CHANNELS 3 Xrotation Yrotation Zrotation
										JOINT LeftForeArm
										{
											OFFSET 29.972298 0.000000 0.000000
											CHANNELS 3 Xrotation Yrotation Zrotation
											JOINT LeftHand
											{
												OFFSET 26.026505 0.000000 0.000000
												CHANNELS 3 Xrotation Yrotation Zrotation
												End Site
												{
													OFFSET 0 0 0
												}
											}
										}
									}
								}
							}
						}
						JOINT RightShoulder_virtual
						{
							OFFSET 0.000000 0.000000 0.000000
							CHANNELS 3 Xrotation Yrotation Zrotation
							JOINT RightShoulder
							{
								OFFSET -7.570500 7.247704 -3.868750
								CHANNELS 3 Xrotation Yrotation Zrotation
								JOINT RightShoulder_split
								{
									OFFSET -7.570500 7.247704 -3.868750
									CHANNELS 3 Xrotation Yrotation Zrotation
									JOINT RightArm
									{
										OFFSET -9.308998 -2.777710 0.208500
										CHANNELS 3 Xrotation Yrotation Zrotation
										JOINT RightForeArm
										{
											OFFSET -29.972300 0.000000 0.000000
											CHANNELS 3 Xrotation Yrotation Zrotation
											JOINT RightHand
											{
												OFFSET -26.026505 0.000000 0.000000
												CHANNELS 3 Xrotation Yrotation Zrotation
												End Site
												{
													OFFSET 0 0 0
												}
											}
										}
									}
								}
							}
						}
					}
				}
			}
		}
	}
}
MOTION
Frames: 4
Frame Time: 0.03333333
6.052541 83.045143 -2.382893 0.000000 0.000000 0.000000 171.457474 -75.869495 -178.118971 -7.422516 18.491293 12.950302 40.707033 12.641826 -7.558500 -22.904488 19.179093 -21.291844 -0.454290 -0.381606 -0.072246 0.000000 0.000000 0.000000 167.304090 -77.664496 178.603641 -32.901462 13.828197 -20.286123 36.014334 -1.794483 -13.177898 -14.571766 18.540405 16.339257 2.552727 2.151691 1.260326 0.000000 0.000000 0.000000 170.311081 -77.928811 -178.892285 26.047541 -12.300049 7.734903 22.667767 -2.610890 0.824219 0.648985 -0.883491 1.408837 0.000000 0.000000 0.000000 21.857550 -2.870911 0.720095 12.411923 -2.976762 -5.705144 -26.429945 17.583106 -8.882393 0.000000 0.000000 0.000000 23.815787 -3.184767 1.080269 -0.698900 -10.691754 10.069489 -3.076355 -2.575838 1.315376 16.538586 18.136218 -75.727182 10.712499 -81.476630 8.950572 0.000000 0.000000 0.000000 22.407846 -2.773566 1.434603 6.893692 16.434215 13.120443 6.734685 4.218834 5.160031 -61.350979 52.648710 51.559667 178.004401 66.444108 -176.925832 0.000000 0.000000 0.000000 
6.025108 82.508209 -2.824337 0.000000 0.000000 0.000000 177.139221 -78.551861 -171.598667 -7.657771 19.664125 14.079446 41.770421 10.819218 -7.104746 -24.491284 16.355059 -21.405535 -1.710710 -0.329204 0.184952 0.000000 0.000000 0.000000 173.438215 -81.400426 -174.641558 -32.827245 11.431115 -22.184830 38.967957 -2.718673 -13.108908 -14.939294 15.796184 15.156188 3.296812 2.200303 1.107870 0.000000 0.000000 0.000000 177.013150 -80.229178 -171.835415 24.863516 -13.082399 7.194998 22.432535 -2.885022 1.074256 1.432372 -0.514881 1.478072 0.000000 0.000000 0.000000 21.616801 -3.183169 0.917454 11.546257 -2.758427 -7.378802 -22.947033 19.253699 -10.518731 0.000000 0.000000 0.000000 23.497611 -3.418293 1.356884 -0.657038 -9.591557 9.143298 -2.983729 -2.911498 1.243853 8.533252 26.776041 -70.976321 -2.130416 -86.025413 -2.965263 0.000000 0.000000 0.000000 22.111045 -3.044668 1.607642 7.235713 17.729006 13.320938 5.566622 3.971148 5.003988 -56.005608 46.933368 45.587613 177.636910 65.998069 -176.679181 0.000000 0.000000 0.000000 
5.903783 81.988007 -3.525246 0.000000 0.000000 0.000000 -170.233080 -82.190255 -158.318744 -8.376511 20.176582 15.716819 42.430610 8.649710 -6.132652 -25.259855 12.805169 -22.230949 -2.191040 -0.233532 0.294978 0.000000 0.000000 0.000000 -165.944446 -85.764595 -153.585860 -32.559980 8.941022 -24.200125 42.338488 -3.792066 -12.748136 -14.871243 12.737792 14.365254 3.678513 2.202366 0.828061 0.000000 0.000000 0.000000 -170.885295 -83.329790 -159.722772 23.296532 -13.176951 6.885790 21.857346 -3.097829 1.347343 1.711278 0.145764 1.203613 0.000000 0.000000 0.000000 21.374961 -3.467293 1.138170 9.947245 -2.541683 -7.687003 -19.379736 20.545754 -12.023520 0.000000 0.000000 0.000000 22.991648 -3.570564 1.623217 -0.583024 -8.689295 8.609079 -2.255705 -2.442751 0.796463 1.147753 29.855167 -66.991868 -155.343282 -86.766871 -155.293039 0.000000 0.000000 0.000000 21.736087 -3.292152 1.729660 7.573584 19.044034 13.234334 4.117852 3.692916 4.414832 -53.810740 42.204408 43.151014 178.140363 66.204470 -177.338977 0.000000 0.000000 0.000000 
5.762039 81.524246 -4.118744 0.000000 0.000000 0.000000 -132.168300 -85.621940 -119.959254 -9.506742 19.858616 17.436153 42.651236 6.681677 -4.769002 -25.449104 8.997293 -23.190159 -1.880710 -0.096846 0.181446 0.000000 0.000000 0.000000 -73.666315 -86.810338 -61.059890 -31.775300 6.818804 -25.857646 45.586445 -4.900589 -12.360559 -14.741442 9.563113 14.026476 3.682406 2.147611 0.581587 0.000000 0.000000 0.000000 -138.316262 -86.218147 -127.421140 21.545017 -12.553314 6.621561 20.961106 -3.161562 1.424728 1.258355 0.628079 0.630691 0.000000 0.000000 0.000000 21.038303 -3.653676 1.118615 8.069857 -2.310227 -6.673342 -15.797592 21.425793 -12.962091 0.000000 0.000000 0.000000 22.289887 -3.638779 1.614337 -0.496396 -8.134920 8.260092 -1.649768 -1.885497 0.009138 -2.753183 27.466977 -65.556408 -171.521363 -78.668029 -170.892726 0.000000 0.000000 0.000000 21.289394 -3.451185 1.625567 7.775259 20.117660 12.888243 2.606560 3.864820 3.925215 -53.363302 38.214297 42.918054 179.239627 67.146579 -178.708471 0.000000 0.000000 0.000000 
